<svg xmlns="http://www.w3.org/2000/svg" xmlns:xlink="http://www.w3.org/1999/xlink" viewBox="0 0 100 20"><defs><path d="M.62 18.43L0 1.92A1.006 1.006 0 0 1 .944.88L14.984.002a1.006 1.006 0 0 1 1.069 1.004v17.988A1.006 1.006 0 0 1 15.002 20L1.58 19.396a1.006 1.006 0 0 1-.96-.967z" id="a"/></defs><g fill="none" fill-rule="evenodd"><path d="M26.64 15.832a8.787 8.787 0 0 1-2.464-.345c-.79-.229-1.445-.546-1.968-.951l.8-1.777c1.088.758 2.31 1.136 3.664 1.136.704 0 1.245-.114 1.624-.343.379-.23.568-.547.568-.952 0-.363-.173-.646-.52-.848-.347-.203-.963-.4-1.848-.593-.992-.202-1.784-.447-2.376-.736-.592-.288-1.024-.642-1.296-1.063-.272-.422-.408-.942-.408-1.56 0-.683.19-1.291.568-1.824.379-.534.91-.952 1.592-1.256.683-.305 1.472-.457 2.368-.457.8 0 1.57.118 2.312.353.741.234 1.33.549 1.768.944l-.8 1.776c-1.035-.758-2.123-1.137-3.264-1.137-.65 0-1.163.126-1.536.377-.373.25-.56.594-.56 1.032 0 .256.072.466.216.631.144.166.384.312.72.44.336.129.813.262 1.432.4 1.45.32 2.493.731 3.128 1.232.635.502.952 1.195.952 2.08 0 1.067-.41 1.907-1.232 2.52-.821.614-1.968.92-3.44.92zm10.464-1.793c.245 0 .501-.015.768-.047l-.128 1.76c-.31.042-.619.063-.928.063-1.195 0-2.067-.26-2.616-.784-.55-.522-.824-1.317-.824-2.383V9.64h-1.488V7.83h1.488V5.527h2.416v2.304h1.968V9.64h-1.968v2.993c0 .938.437 1.408 1.312 1.408zm5.616 1.777c-.832 0-1.563-.168-2.192-.505a3.534 3.534 0 0 1-1.456-1.424c-.341-.613-.512-1.335-.512-2.168 0-.832.17-1.554.512-2.167a3.484 3.484 0 0 1 1.456-1.416c.63-.331 1.36-.496 2.192-.496.832 0 1.563.165 2.192.496.63.33 1.115.802 1.456 1.416.341.613.512 1.335.512 2.168 0 .832-.17 1.554-.512 2.167a3.534 3.534 0 0 1-1.456 1.425c-.63.336-1.36.504-2.192.504zm0-1.84c1.173 0 1.76-.752 1.76-2.257 0-.757-.152-1.322-.456-1.695-.304-.374-.739-.56-1.304-.56-1.173 0-1.76.751-1.76 2.255 0 1.505.587 2.257 1.76 2.257zm10.848-4.353l-1.36.145c-.672.064-1.147.253-1.424.567-.277.315-.416.734-.416 1.256v4.097h-2.416V7.83h2.32V9.16c.395-.906 1.21-1.402 2.448-1.488l.704-.048.144 2zm7.02-1.775h2.368l-4.736 10.72h-2.448l1.504-3.313-3.232-7.408h2.512l1.984 4.992 2.048-4.992zm7.968-.208c.683 0 1.285.165 1.808.496.523.33.93.802 1.224 1.416.293.613.44 1.325.44 2.136 0 .81-.147 1.527-.44 2.151-.293.625-.704 1.11-1.232 1.457a3.206 3.206 0 0 1-1.8.52 3.12 3.12 0 0 1-1.472-.345 2.449 2.449 0 0 1-1.008-.951v1.168h-2.384V4.408h2.416v4.48a2.388 2.388 0 0 1 1-.92 3.16 3.16 0 0 1 1.448-.329zm-.704 6.336c.565 0 1.003-.2 1.312-.6.31-.4.464-.963.464-1.688 0-.715-.155-1.262-.464-1.64-.31-.38-.747-.569-1.312-.569-.565 0-1.003.195-1.312.585-.31.389-.464.94-.464 1.655 0 .726.155 1.283.464 1.673.31.389.747.584 1.312.584zm9.424 1.84c-.832 0-1.563-.168-2.192-.505a3.534 3.534 0 0 1-1.456-1.424c-.341-.613-.512-1.335-.512-2.168 0-.832.17-1.554.512-2.167a3.484 3.484 0 0 1 1.456-1.416c.63-.331 1.36-.496 2.192-.496.832 0 1.563.165 2.192.496.63.33 1.115.802 1.456 1.416.341.613.512 1.335.512 2.168 0 .832-.17 1.554-.512 2.167a3.534 3.534 0 0 1-1.456 1.425c-.63.336-1.36.504-2.192.504zm0-1.84c1.173 0 1.76-.752 1.76-2.257 0-.757-.152-1.322-.456-1.695-.304-.374-.739-.56-1.304-.56-1.173 0-1.76.751-1.76 2.255 0 1.505.587 2.257 1.76 2.257zm9.008 1.84c-.832 0-1.563-.168-2.192-.505a3.534 3.534 0 0 1-1.456-1.424c-.341-.613-.512-1.335-.512-2.168 0-.832.17-1.554.512-2.167a3.484 3.484 0 0 1 1.456-1.416c.63-.331 1.36-.496 2.192-.496.832 0 1.563.165 2.192.496.63.33 1.115.802 1.456 1.416.341.613.512 1.335.512 2.168 0 .832-.17 1.554-.512 2.167a3.534 3.534 0 0 1-1.456 1.425c-.63.336-1.36.504-2.192.504zm0-1.84c1.173 0 1.76-.752 1.76-2.257 0-.757-.152-1.322-.456-1.695-.304-.374-.739-.56-1.304-.56-1.173 0-1.76.751-1.76 2.255 0 1.505.587 2.257 1.76 2.257zM100 15.687h-2.96l-3.008-3.503v3.504h-2.416V4.408h2.416v6.783l2.896-3.344h2.88l-3.296 3.744L100 15.689z" fill="#333"/><mask id="b" fill="#fff"><use xlink:href="#a"/></mask><use fill="#FF4785" fill-rule="nonzero" xlink:href="#a"/><path d="M11.854 2.458L11.95.152 13.878 0l.083 2.379a.15.15 0 0 1-.243.123l-.743-.586-.88.668a.15.15 0 0 1-.241-.126zM9.388 7.538c0 .391 2.635.204 2.988-.07 0-2.665-1.429-4.065-4.047-4.065-2.617 0-4.084 1.422-4.084 3.554 0 3.715 5.013 3.786 5.013 5.812 0 .568-.279.906-.892.906-.798 0-1.113-.408-1.076-1.794 0-.3-3.045-.394-3.138 0-.236 3.36 1.857 4.328 4.252 4.328 2.32 0 4.14-1.237 4.14-3.476 0-3.98-5.087-3.874-5.087-5.847 0-.8.594-.906.947-.906.37 0 1.04.065.984 1.558z" fill="#FFF" fill-rule="nonzero" mask="url(#b)"/></g></svg>